<svg width="98" height="108" viewBox="0 0 98 108" fill="none" xmlns="http://www.w3.org/2000/svg">
<rect width="97.9284" height="107.738" rx="17.1892" fill="#1D4199"/>
<g clip-path="url(#clip0_1_96)">
<path d="M38.4092 51.7892C38.4092 51.7892 31.3292 52.7992 31.7292 61.2992C32.1292 69.7992 35.1292 74.0392 40.3092 76.2692C42.5192 77.2192 43.8092 76.6892 44.5592 75.7792C45.5592 74.5492 45.5992 72.6292 45.5992 72.6292C45.5992 72.6292 45.2492 67.1092 45.5992 61.0992C45.7192 59.0792 44.4692 51.1892 38.3992 51.7992L38.4092 51.7892Z" stroke="white" stroke-width="2" stroke-linecap="round" stroke-linejoin="round"/>
<path d="M46.2692 88.9892C46.2692 88.9892 46.7992 77.1992 44.5692 75.7792" stroke="white" stroke-width="2" stroke-linecap="round" stroke-linejoin="round"/>
<path d="M63.8092 62.4192C63.7992 62.6992 63.8092 62.4192 63.7892 62.6892C63.2292 70.6292 60.2692 74.6692 55.2592 76.8292C53.0492 77.7792 51.7592 77.2492 51.0092 76.3392C50.0092 75.1092 49.9692 73.1892 49.9692 73.1892C49.9692 73.1892 50.2692 68.5192 50.0392 63.0792" stroke="white" stroke-width="2" stroke-linecap="round" stroke-linejoin="round"/>
<path d="M50.1492 59.0092C50.6892 55.9592 52.5092 51.8892 57.1592 52.3492C57.1592 52.3492 62.1292 53.0592 63.5092 58.2892" stroke="white" stroke-width="2" stroke-linecap="round" stroke-linejoin="round"/>
<path d="M49.3092 89.5492C49.3092 89.5492 48.7792 77.7592 51.0092 76.3392" stroke="white" stroke-width="2" stroke-linecap="round" stroke-linejoin="round"/>
<path d="M36.7992 51.7592C36.7992 51.7592 19.3092 42.2992 18.2392 32.7492C17.1692 23.1992 35.2192 17.9292 46.3192 18.1992C57.4192 18.4692 80.0992 20.2492 79.7392 32.5692C79.5392 39.3192 72.9692 44.4292 67.0692 47.6792" stroke="white" stroke-width="2" stroke-linecap="round" stroke-linejoin="round"/>
<path d="M56.5392 64.8292C62.9347 64.8292 68.1192 59.6446 68.1192 53.2492C68.1192 46.8537 62.9347 41.6692 56.5392 41.6692C50.1437 41.6692 44.9592 46.8537 44.9592 53.2492C44.9592 59.6446 50.1437 64.8292 56.5392 64.8292Z" stroke="white" stroke-width="2" stroke-linecap="round" stroke-linejoin="round"/>
<path d="M56.5392 61.8592C61.2944 61.8592 65.1492 58.0044 65.1492 53.2492C65.1492 48.4941 61.2944 44.6392 56.5392 44.6392C51.784 44.6392 47.9292 48.4941 47.9292 53.2492C47.9292 58.0044 51.784 61.8592 56.5392 61.8592Z" stroke="white" stroke-width="2" stroke-linecap="round" stroke-linejoin="round"/>
<path d="M64.4492 62.4192L66.5892 64.8292" stroke="white" stroke-width="2" stroke-linecap="round" stroke-linejoin="round"/>
<path d="M65.5192 66.2092L68.2692 63.7992L77.6892 73.1092L75.1092 75.9492L65.5192 66.2092Z" stroke="white" stroke-width="2" stroke-linecap="round" stroke-linejoin="round"/>
<path d="M57.5192 52.3192L63.5092 49.1792" stroke="white" stroke-width="2" stroke-linecap="round" stroke-linejoin="round"/>
</g>
<defs>
<clipPath id="clip0_1_96">
<rect width="63.55" height="73.36" fill="white" transform="translate(17.1892 17.1892)"/>
</clipPath>
</defs>
</svg>
